<?xml version="1.0" encoding="UTF-8" standalone="no"?>
<!-- Created with Serif DrawPlus 11, 0, 3, 23 (Feb 25, 14:12:55) (http://www.serif.com) -->

<svg version="1.1" xmlns="http://www.w3.org/2000/svg" xmlns:xlink="http://www.w3.org/1999/xlink" width="173.64" height="46.752">
	<g id="dp_group001" transform="matrix(1,0,0,1,-115.072,-57.74)">
		<path id="dp_path002" fill="white" fill-rule="evenodd" d="M 196.151,78.5627 L 193.205,78.5627 L 190.663,69.232 C 190.589,68.9733 190.508,68.6667 190.424,68.3133 C 190.337,67.9573 190.26,67.6227 190.193,67.3027 C 190.113,66.9333 190.171,66.7267 190.369,66.6853 C 190.563,66.736 190.62,66.9467 190.539,67.316 C 190.465,67.6413 190.388,67.976 190.305,68.324 C 190.224,68.6707 190.145,68.9733 190.069,69.232 L 187.508,78.5627 L 184.563,78.5627 L 180.133,63.5107 L 183.036,63.5107 L 185.671,72.84 C 185.787,73.268 185.896,73.6933 186.001,74.112 C 186.105,74.5307 186.197,74.9053 186.271,75.2387 C 186.359,75.6307 186.3,75.8493 186.096,75.8933 C 185.915,75.732 185.879,75.4227 185.989,74.9693 C 186.033,74.7827 186.081,74.5867 186.128,74.3773 C 186.175,74.1693 186.224,73.9627 186.276,73.7587 C 186.328,73.5533 186.377,73.36 186.427,73.1733 C 186.479,72.988 186.524,72.8187 186.565,72.6613 L 189.12,63.5107 L 191.615,63.5107 L 194.169,72.6613 C 194.211,72.8187 194.256,72.988 194.305,73.1733 C 194.357,73.3573 194.407,73.552 194.459,73.7533 C 194.509,73.9547 194.557,74.1587 194.607,74.3667 C 194.652,74.576 194.699,74.7733 194.745,74.9587 C 194.855,75.4147 194.823,75.904 194.651,76.428 C 194.644,76.428 194.599,76.3 194.517,76.0387 C 194.435,75.7787 194.435,75.4747 194.515,75.124 C 194.596,74.7747 194.685,74.396 194.783,73.9853 C 194.881,73.576 194.98,73.1933 195.084,72.8387 L 197.676,63.5107 L 200.583,63.5107 Z "/>
		<path id="dp_path003" fill="white" fill-rule="evenodd" d="M 204.304,78.768 C 203.087,78.768 202.163,78.4373 201.531,77.772 C 200.897,77.108 200.581,76.2147 200.581,75.092 C 200.581,74.2947 200.736,73.6347 201.047,73.108 C 201.356,72.5827 201.759,72.172 202.252,71.8787 C 202.747,71.584 203.293,71.384 203.893,71.2747 C 204.495,71.1693 205.097,71.1067 205.704,71.0933 L 207.729,71.06 L 207.729,70.8893 C 207.729,70.48 207.689,70.1453 207.612,69.884 C 207.535,69.6227 207.425,69.42 207.281,69.2747 C 207.137,69.1307 206.945,69.0213 206.709,68.9467 C 206.472,68.8733 206.176,68.8373 205.824,68.8373 C 205.499,68.8373 205.217,68.86 204.975,68.9027 C 204.733,68.9453 204.535,69.016 204.383,69.112 C 204.228,69.2093 204.103,69.3427 204.008,69.5107 C 203.912,69.6813 203.831,70.0453 203.765,70.608 L 200.999,70.3573 C 201.121,69.58 201.288,68.9867 201.503,68.58 C 201.716,68.1707 202.02,67.816 202.413,67.5187 C 202.805,67.2227 203.284,66.9947 203.849,66.8387 C 204.415,66.6827 205.087,66.604 205.864,66.604 C 207.343,66.604 208.473,66.9573 209.252,67.6653 C 210.032,68.3733 210.421,69.384 210.421,70.7 L 210.421,75.3933 C 210.421,75.8613 210.463,76.1773 210.549,76.34 C 210.633,76.504 210.787,76.5867 211.008,76.5867 C 211.091,76.5867 211.175,76.5813 211.26,76.5693 C 211.344,76.5573 211.603,76.5053 212.032,76.4147 L 212.032,78.4147 C 211.568,78.524 211.215,78.5933 210.973,78.6227 C 210.731,78.652 210.475,78.6653 210.204,78.6653 C 209.811,78.6653 209.46,78.6093 209.156,78.4973 C 208.852,78.384 208.6,78.2107 208.401,77.9733 C 208.204,77.7373 208.057,77.4613 207.965,77.1453 C 207.871,76.8307 207.936,76.488 208.159,76.1187 L 208.219,76.1587 C 208.223,76.6 208.097,76.976 207.843,77.2853 C 207.588,77.5933 207.288,77.86 206.943,78.0813 C 206.596,78.3027 206.207,78.4733 205.775,78.592 C 205.343,78.7107 204.852,78.768 204.304,78.768 Z M 204.716,76.552 C 205.228,76.552 205.671,76.4587 206.048,76.2747 C 206.425,76.092 206.739,75.8547 206.985,75.568 C 207.235,75.28 207.421,74.9667 207.544,74.624 C 207.668,74.2827 207.729,73.9587 207.729,73.652 L 207.729,73.1933 L 206.183,73.224 C 205.759,73.2307 205.364,73.26 204.999,73.3133 C 204.635,73.364 204.331,73.4587 204.085,73.5947 C 203.841,73.7307 203.649,73.916 203.511,74.152 C 203.372,74.3893 203.304,74.712 203.304,75.1253 C 203.304,75.6 203.42,75.956 203.656,76.1947 C 203.891,76.4333 204.245,76.552 204.716,76.552 Z "/>
		<path id="dp_path004" fill="white" fill-rule="evenodd" d="M 217.199,82.84 C 216.537,82.84 215.944,82.772 215.419,82.6333 C 214.893,82.4933 214.437,82.2907 214.051,82.0213 C 213.664,81.7533 213.349,81.432 213.107,81.0587 C 212.863,80.684 212.652,80.1213 212.476,79.3653 L 215.149,78.98 C 215.305,79.6293 215.548,80.0627 215.877,80.28 C 216.208,80.4987 216.664,80.6067 217.248,80.6067 C 217.611,80.6067 217.932,80.5587 218.211,80.464 C 218.489,80.3693 218.723,80.2227 218.912,80.0187 C 219.101,79.8187 219.251,79.5413 219.363,79.1907 C 219.472,78.84 219.529,78.3973 219.529,77.8653 L 219.937,76.1333 L 219.959,76.1453 C 220.053,76.552 219.991,76.896 219.771,77.1773 C 219.549,77.4587 219.277,77.708 218.956,77.928 C 218.635,78.1467 218.268,78.3213 217.851,78.452 C 217.432,78.5827 216.96,78.648 216.435,78.648 C 215.679,78.648 215.021,78.5173 214.464,78.2547 C 213.905,77.9933 213.452,77.6013 213.103,77.0827 C 212.752,76.564 212.501,75.9387 212.348,75.208 C 212.196,74.4787 212.119,73.6453 212.119,72.708 C 212.119,71.8067 212.193,70.9853 212.347,70.244 C 212.5,69.504 212.757,68.8627 213.12,68.3213 C 213.483,67.78 213.956,67.364 214.541,67.0747 C 215.125,66.784 215.823,66.6373 216.635,66.6373 C 217.489,66.6373 218.235,66.8373 218.872,67.2347 C 219.509,67.6333 219.877,68.2467 219.977,69.0773 L 219.959,69.0893 C 219.685,68.9267 219.553,68.7387 219.563,68.5267 C 219.573,68.3147 219.584,68.1133 219.595,67.9253 C 219.604,67.736 219.619,67.5533 219.635,67.38 C 219.652,67.2067 219.729,67.0173 219.867,66.8093 L 222.3,66.8093 C 222.259,67.1787 222.235,67.4333 222.228,67.572 C 222.223,67.7093 222.216,67.8787 222.209,68.0773 C 222.203,68.2773 222.197,68.4987 222.193,68.7413 C 222.191,68.9827 222.188,69.2347 222.188,69.4933 L 222.188,77.82 C 222.188,79.4613 221.775,80.7067 220.943,81.56 C 220.111,82.4147 218.864,82.84 217.199,82.84 Z M 219.529,72.6907 C 219.529,71.976 219.453,71.372 219.301,70.8773 C 219.152,70.384 218.961,69.988 218.729,69.6947 C 218.5,69.4013 218.241,69.188 217.955,69.0533 C 217.669,68.9213 217.377,68.8547 217.079,68.8547 C 216.68,68.8547 216.348,68.9173 216.084,69.0467 C 215.817,69.176 215.593,69.3853 215.412,69.672 C 215.229,69.9613 215.091,70.3547 214.995,70.856 C 214.899,71.356 214.851,71.968 214.851,72.6907 C 214.851,73.4493 214.899,74.0747 214.995,74.5653 C 215.091,75.0587 215.227,75.4387 215.401,75.708 C 215.577,75.9787 215.797,76.1693 216.057,76.28 C 216.321,76.392 216.651,76.4493 217.048,76.4493 C 217.351,76.4493 217.644,76.3853 217.931,76.256 C 218.217,76.1293 218.479,75.9213 218.716,75.6333 C 218.952,75.344 219.145,74.9587 219.299,74.476 C 219.452,73.9933 219.529,73.3987 219.529,72.6907 Z "/>
		<path id="dp_path005" fill="white" fill-rule="evenodd" d="M 228.745,82.84 C 228.084,82.84 227.491,82.772 226.965,82.6333 C 226.44,82.4933 225.984,82.2907 225.597,82.0213 C 225.211,81.7533 224.896,81.432 224.653,81.0587 C 224.409,80.684 224.199,80.1213 224.023,79.3653 L 226.696,78.98 C 226.852,79.6293 227.095,80.0627 227.424,80.28 C 227.755,80.4987 228.211,80.6067 228.795,80.6067 C 229.157,80.6067 229.479,80.5587 229.757,80.464 C 230.036,80.3693 230.269,80.2227 230.459,80.0187 C 230.648,79.8187 230.797,79.5413 230.909,79.1907 C 231.019,78.84 231.076,78.3973 231.076,77.8653 L 231.484,76.1333 L 231.505,76.1453 C 231.6,76.552 231.537,76.896 231.317,77.1773 C 231.096,77.4587 230.824,77.708 230.503,77.928 C 230.181,78.1467 229.815,78.3213 229.397,78.452 C 228.979,78.5827 228.507,78.648 227.981,78.648 C 227.225,78.648 226.568,78.5173 226.011,78.2547 C 225.452,77.9933 224.999,77.6013 224.649,77.0827 C 224.299,76.564 224.048,75.9387 223.895,75.208 C 223.743,74.4787 223.665,73.6453 223.665,72.708 C 223.665,71.8067 223.74,70.9853 223.893,70.244 C 224.047,69.504 224.304,68.8627 224.667,68.3213 C 225.029,67.78 225.503,67.364 226.088,67.0747 C 226.672,66.784 227.369,66.6373 228.181,66.6373 C 229.036,66.6373 229.781,66.8373 230.419,67.2347 C 231.056,67.6333 231.424,68.2467 231.524,69.0773 L 231.505,69.0893 C 231.232,68.9267 231.1,68.7387 231.109,68.5267 C 231.12,68.3147 231.131,68.1133 231.141,67.9253 C 231.151,67.736 231.165,67.5533 231.181,67.38 C 231.199,67.2067 231.276,67.0173 231.413,66.8093 L 233.847,66.8093 C 233.805,67.1787 233.781,67.4333 233.775,67.572 C 233.769,67.7093 233.763,67.8787 233.756,68.0773 C 233.749,68.2773 233.744,68.4987 233.74,68.7413 C 233.737,68.9827 233.735,69.2347 233.735,69.4933 L 233.735,77.82 C 233.735,79.4613 233.321,80.7067 232.489,81.56 C 231.657,82.4147 230.411,82.84 228.745,82.84 Z M 231.076,72.6907 C 231.076,71.976 231,71.372 230.848,70.8773 C 230.699,70.384 230.508,69.988 230.276,69.6947 C 230.047,69.4013 229.788,69.188 229.501,69.0533 C 229.216,68.9213 228.924,68.8547 228.625,68.8547 C 228.227,68.8547 227.895,68.9173 227.631,69.0467 C 227.364,69.176 227.14,69.3853 226.959,69.672 C 226.776,69.9613 226.637,70.3547 226.541,70.856 C 226.445,71.356 226.397,71.968 226.397,72.6907 C 226.397,73.4493 226.445,74.0747 226.541,74.5653 C 226.637,75.0587 226.773,75.4387 226.948,75.708 C 227.124,75.9787 227.344,76.1693 227.604,76.28 C 227.868,76.392 228.197,76.4493 228.595,76.4493 C 228.897,76.4493 229.191,76.3853 229.477,76.256 C 229.764,76.1293 230.025,75.9213 230.263,75.6333 C 230.499,75.344 230.692,74.9587 230.845,74.476 C 230.999,73.9933 231.076,73.3987 231.076,72.6907 Z "/>
		<path id="dp_path006" fill="white" fill-rule="evenodd" d="M 235.736,78.5627 L 235.736,62.7547 L 238.405,62.7547 L 238.405,78.5627 Z "/>
		<path id="dp_path007" fill="white" fill-rule="evenodd" d="M 245.875,78.288 C 245.615,78.9573 245.347,79.5693 245.071,80.1173 C 244.793,80.6667 244.476,81.1467 244.115,81.5533 C 243.756,81.9613 243.347,82.2773 242.888,82.5027 C 242.432,82.7267 241.908,82.84 241.316,82.84 C 241.079,82.84 240.855,82.8333 240.644,82.8187 C 240.435,82.804 240.1,82.7467 239.639,82.6467 L 239.639,80.4387 C 240.084,80.5093 240.381,80.548 240.531,80.5587 C 240.68,80.568 240.809,80.572 240.915,80.572 C 241.337,80.572 241.744,80.404 242.135,80.0653 C 242.523,79.7267 242.876,79.1587 243.192,78.3573 L 243.301,78.0827 L 238.811,66.8093 L 241.673,66.8093 L 244.075,73.108 C 244.143,73.2947 244.231,73.5387 244.335,73.8427 C 244.44,74.1467 244.543,74.4493 244.648,74.7507 C 244.753,75.056 244.845,75.3307 244.929,75.58 C 245.012,75.828 244.923,75.9907 244.661,76.064 C 244.408,75.968 244.319,75.808 244.397,75.584 C 244.477,75.3613 244.565,75.1133 244.664,74.8453 C 244.761,74.576 244.859,74.304 244.959,74.0307 C 245.059,73.7587 245.143,73.5227 245.208,73.324 L 247.444,66.8093 L 250.287,66.8093 Z "/>
		<path id="dp_path008" fill="white" fill-rule="evenodd" d="M 184.18,92.08 L 184.18,95.7107 L 189.608,95.7107 L 189.608,96.8067 L 184.18,96.8067 L 184.18,100.744 L 182.859,100.744 L 182.859,91.0067 L 189.773,91.0067 L 189.773,92.08 Z "/>
		<path id="dp_path009" fill="white" fill-rule="evenodd" d="M 191.284,91.6787 L 191.284,90.488 L 192.528,90.488 L 192.528,91.6787 Z M 191.284,100.744 L 191.284,93.2693 L 192.528,93.2693 L 192.528,100.744 Z "/>
		<path id="dp_path010" fill="white" fill-rule="evenodd" d="M 199.167,100.744 L 199.167,95.9987 C 199.167,95.6347 199.141,95.3307 199.088,95.0867 C 199.035,94.8413 198.949,94.644 198.828,94.4947 C 198.708,94.3453 198.552,94.2387 198.356,94.176 C 198.16,94.1133 197.917,94.0827 197.627,94.0827 C 197.332,94.0827 197.067,94.1347 196.829,94.2387 C 196.592,94.3427 196.389,94.492 196.221,94.688 C 196.052,94.884 195.923,95.1267 195.831,95.4147 C 195.739,95.7027 195.693,96.0333 195.693,96.4067 L 195.693,100.744 L 194.449,100.744 L 194.449,94.8653 C 194.449,94.7093 194.448,94.544 194.445,94.372 C 194.444,94.1987 194.44,94.0347 194.435,93.88 C 194.432,93.7267 194.427,93.5947 194.423,93.484 C 194.417,93.3733 194.413,93.3013 194.408,93.2693 L 195.583,93.2693 C 195.587,93.292 195.592,93.3547 195.596,93.4547 C 195.601,93.5547 195.607,93.6707 195.613,93.8013 C 195.62,93.932 195.625,94.064 195.631,94.1987 C 195.635,94.3347 195.637,94.448 195.637,94.54 L 195.659,94.54 C 195.777,94.324 195.909,94.128 196.052,93.9533 C 196.195,93.78 196.36,93.632 196.549,93.5107 C 196.739,93.3893 196.955,93.2947 197.199,93.2293 C 197.443,93.1613 197.725,93.128 198.048,93.128 C 198.461,93.128 198.819,93.1787 199.119,93.28 C 199.417,93.3813 199.664,93.5387 199.857,93.7507 C 200.051,93.9613 200.192,94.236 200.281,94.5693 C 200.373,94.9027 200.417,95.3013 200.417,95.7613 L 200.417,100.744 Z "/>
		<path id="dp_path011" fill="white" fill-rule="evenodd" d="M 207.024,99.5507 C 206.792,100.027 206.488,100.368 206.108,100.575 C 205.728,100.781 205.257,100.885 204.696,100.885 C 203.752,100.885 203.057,100.567 202.613,99.9307 C 202.168,99.2947 201.947,98.332 201.947,97.0413 C 201.947,94.432 202.863,93.128 204.696,93.128 C 205.263,93.128 205.735,93.232 206.111,93.44 C 206.489,93.6467 206.792,93.976 207.024,94.428 L 207.036,94.428 C 207.036,94.3813 207.036,94.3093 207.033,94.2107 C 207.031,94.1107 207.029,94.008 207.027,93.9 C 207.025,93.7907 207.024,93.688 207.024,93.592 C 207.024,93.4947 207.024,93.4253 207.024,93.384 L 207.024,90.488 L 208.267,90.488 L 208.267,99.2027 C 208.267,99.3813 208.267,99.5547 208.269,99.72 C 208.272,99.8867 208.276,100.039 208.28,100.176 C 208.285,100.315 208.289,100.433 208.295,100.532 C 208.299,100.632 208.304,100.703 208.308,100.744 L 207.12,100.744 C 207.111,100.697 207.103,100.632 207.096,100.548 C 207.088,100.463 207.083,100.367 207.076,100.256 C 207.068,100.147 207.063,100.032 207.057,99.9107 C 207.053,99.788 207.051,99.6693 207.051,99.5507 Z M 203.252,97.0027 C 203.252,97.52 203.284,97.9627 203.348,98.332 C 203.413,98.7 203.517,99.004 203.66,99.2413 C 203.803,99.4787 203.985,99.6533 204.205,99.764 C 204.427,99.8747 204.696,99.9307 205.013,99.9307 C 205.34,99.9307 205.629,99.8773 205.88,99.7707 C 206.132,99.6653 206.341,99.4933 206.508,99.256 C 206.677,99.0173 206.804,98.708 206.892,98.324 C 206.98,97.9413 207.024,97.4733 207.024,96.92 C 207.024,96.3893 206.98,95.9413 206.892,95.5733 C 206.804,95.2067 206.676,94.9107 206.505,94.684 C 206.335,94.4587 206.127,94.296 205.88,94.196 C 205.633,94.0973 205.349,94.048 205.027,94.048 C 204.724,94.048 204.461,94.1013 204.24,94.2067 C 204.019,94.3133 203.835,94.484 203.688,94.7187 C 203.54,94.9547 203.431,95.26 203.359,95.636 C 203.288,96.012 203.252,96.468 203.252,97.0027 Z "/>
		<path id="dp_path012" fill="white" fill-rule="evenodd" d="M 217.329,100.744 C 217.155,101.195 216.976,101.6 216.795,101.963 C 216.613,102.324 216.409,102.632 216.184,102.888 C 215.957,103.144 215.707,103.339 215.431,103.475 C 215.155,103.611 214.836,103.679 214.477,103.679 C 214.32,103.679 214.175,103.673 214.041,103.664 C 213.909,103.655 213.768,103.635 213.621,103.603 L 213.621,102.671 C 213.708,102.684 213.808,102.695 213.919,102.701 C 214.028,102.708 214.123,102.712 214.201,102.712 C 214.564,102.712 214.904,102.576 215.216,102.304 C 215.529,102.033 215.803,101.6 216.037,101.007 L 216.156,100.708 L 213.193,93.2693 L 214.519,93.2693 L 216.093,97.4 C 216.139,97.524 216.197,97.6907 216.269,97.8973 C 216.34,98.1053 216.412,98.312 216.483,98.5187 C 216.555,98.7267 216.619,98.9133 216.675,99.0787 C 216.728,99.244 216.761,99.348 216.771,99.3893 C 216.784,99.3387 216.819,99.2387 216.871,99.0893 C 216.923,98.94 216.983,98.772 217.051,98.588 C 217.117,98.4053 217.184,98.2173 217.255,98.0293 C 217.323,97.84 217.38,97.676 217.427,97.5387 L 218.891,93.2693 L 220.204,93.2693 Z "/>
		<path id="dp_path013" fill="white" fill-rule="evenodd" d="M 227.521,97 C 227.521,98.308 227.235,99.2827 226.659,99.924 C 226.083,100.564 225.247,100.885 224.152,100.885 C 223.631,100.885 223.167,100.807 222.756,100.651 C 222.345,100.493 221.999,100.253 221.716,99.9307 C 221.433,99.608 221.216,99.204 221.067,98.7173 C 220.917,98.232 220.843,97.6587 220.843,97 C 220.843,94.4187 221.959,93.128 224.193,93.128 C 224.773,93.128 225.273,93.208 225.695,93.3707 C 226.116,93.532 226.461,93.7733 226.731,94.096 C 227,94.4187 227.2,94.8227 227.328,95.3053 C 227.457,95.7907 227.521,96.3547 227.521,97 Z M 226.217,97 C 226.217,96.4187 226.171,95.94 226.081,95.5613 C 225.992,95.184 225.861,94.8827 225.688,94.656 C 225.516,94.4293 225.304,94.2733 225.056,94.1827 C 224.807,94.0933 224.527,94.048 224.213,94.048 C 223.896,94.048 223.609,94.0947 223.353,94.1893 C 223.097,94.284 222.881,94.4453 222.7,94.6733 C 222.521,94.9013 222.384,95.204 222.291,95.5827 C 222.195,95.96 222.148,96.432 222.148,97 C 222.148,97.5813 222.199,98.06 222.3,98.4413 C 222.401,98.8213 222.541,99.124 222.719,99.3507 C 222.895,99.576 223.105,99.7347 223.347,99.828 C 223.588,99.92 223.852,99.9653 224.137,99.9653 C 224.455,99.9653 224.743,99.92 225,99.8307 C 225.259,99.74 225.477,99.5827 225.657,99.3573 C 225.836,99.1307 225.975,98.8267 226.072,98.4453 C 226.168,98.0613 226.217,97.5813 226.217,97 Z "/>
		<path id="dp_path014" fill="white" fill-rule="evenodd" d="M 230.301,93.2693 L 230.301,98.0147 C 230.301,98.3787 230.328,98.6827 230.38,98.9267 C 230.433,99.1707 230.521,99.3693 230.64,99.5187 C 230.76,99.668 230.919,99.7747 231.112,99.8373 C 231.308,99.9 231.552,99.9307 231.843,99.9307 C 232.137,99.9307 232.403,99.8787 232.639,99.7747 C 232.876,99.6707 233.079,99.5213 233.247,99.3253 C 233.416,99.128 233.545,98.8867 233.637,98.5987 C 233.729,98.3107 233.776,97.9787 233.776,97.6067 L 233.776,93.2693 L 235.019,93.2693 L 235.019,99.148 C 235.019,99.304 235.02,99.4693 235.023,99.6413 C 235.025,99.8147 235.028,99.9787 235.033,100.132 C 235.037,100.287 235.041,100.419 235.047,100.529 C 235.051,100.64 235.056,100.712 235.06,100.744 L 233.887,100.744 C 233.881,100.721 233.877,100.659 233.872,100.559 C 233.867,100.457 233.863,100.341 233.856,100.212 C 233.848,100.081 233.843,99.9493 233.837,99.8133 C 233.833,99.6787 233.831,99.5653 233.831,99.4733 L 233.811,99.4733 C 233.691,99.6893 233.56,99.8853 233.417,100.059 C 233.275,100.233 233.108,100.381 232.92,100.503 C 232.731,100.624 232.515,100.719 232.271,100.784 C 232.027,100.852 231.743,100.885 231.42,100.885 C 231.007,100.885 230.649,100.835 230.349,100.733 C 230.051,100.632 229.804,100.475 229.611,100.263 C 229.417,100.052 229.276,99.7787 229.187,99.448 C 229.097,99.116 229.052,98.7173 229.052,98.252 L 229.052,93.2693 Z "/>
		<path id="dp_path015" fill="white" fill-rule="evenodd" d="M 236.997,100.744 L 236.997,95.0107 C 236.997,94.8547 236.996,94.6933 236.993,94.5307 C 236.992,94.368 236.988,94.2093 236.983,94.0573 C 236.98,93.9053 236.975,93.7627 236.971,93.6293 C 236.965,93.4947 236.961,93.376 236.956,93.2693 L 238.131,93.2693 C 238.135,93.376 238.141,93.496 238.148,93.632 C 238.155,93.768 238.161,93.9067 238.168,94.0493 C 238.175,94.1907 238.18,94.3267 238.181,94.4587 C 238.184,94.5907 238.185,94.7013 238.185,94.7933 L 238.212,94.7933 C 238.301,94.508 238.395,94.26 238.493,94.0507 C 238.592,93.84 238.708,93.668 238.843,93.5333 C 238.975,93.396 239.135,93.296 239.319,93.2293 C 239.503,93.1613 239.727,93.128 239.988,93.128 C 240.089,93.128 240.185,93.1373 240.277,93.152 C 240.369,93.168 240.441,93.184 240.492,93.1987 L 240.492,94.3413 C 240.409,94.3173 240.313,94.3 240.203,94.2893 C 240.092,94.2773 239.968,94.272 239.829,94.272 C 239.544,94.272 239.3,94.3373 239.1,94.4653 C 238.9,94.5933 238.737,94.7733 238.609,95 C 238.484,95.228 238.391,95.5 238.331,95.8147 C 238.271,96.1307 238.241,96.4747 238.241,96.848 L 238.241,100.744 Z "/>
		<path id="dp_path016" fill="white" fill-rule="evenodd" d="M 255.092,100.744 L 253.517,100.744 L 251.832,94.5587 C 251.781,94.3827 251.727,94.1747 251.669,93.936 C 251.612,93.6973 251.56,93.468 251.515,93.252 C 251.459,92.9987 251.404,92.7413 251.348,92.4773 C 251.288,92.7453 251.231,93.0053 251.175,93.2587 C 251.124,93.48 251.072,93.708 251.017,93.9427 C 250.961,94.1773 250.908,94.3827 250.857,94.5587 L 249.159,100.744 L 247.583,100.744 L 244.717,91.0067 L 246.092,91.0067 L 247.839,97.192 C 247.919,97.4813 247.992,97.7707 248.064,98.056 C 248.135,98.3413 248.196,98.5973 248.247,98.8227 C 248.307,99.0893 248.363,99.3427 248.413,99.584 C 248.481,99.2653 248.553,98.952 248.627,98.6427 C 248.66,98.5147 248.692,98.3773 248.723,98.2347 C 248.756,98.092 248.789,97.952 248.824,97.8147 C 248.859,97.6747 248.893,97.5427 248.927,97.4173 C 248.961,97.2893 248.993,97.1733 249.02,97.0667 L 250.713,91.0067 L 251.976,91.0067 L 253.669,97.0667 C 253.696,97.1733 253.727,97.2893 253.763,97.4173 C 253.796,97.5427 253.831,97.6747 253.867,97.8107 C 253.9,97.9467 253.933,98.0853 253.967,98.2293 C 253.999,98.372 254.031,98.5067 254.061,98.636 C 254.136,98.944 254.208,99.26 254.276,99.584 C 254.281,99.584 254.303,99.5027 254.339,99.344 C 254.376,99.1853 254.421,98.9853 254.477,98.7467 C 254.532,98.5067 254.593,98.248 254.66,97.9693 C 254.727,97.6907 254.795,97.4307 254.864,97.192 L 256.583,91.0067 L 257.957,91.0067 Z "/>
		<path id="dp_path017" fill="white" fill-rule="evenodd" d="M 260.867,100.885 C 260.116,100.885 259.552,100.687 259.175,100.289 C 258.797,99.8933 258.608,99.3493 258.608,98.6573 C 258.608,98.164 258.701,97.76 258.888,97.444 C 259.075,97.128 259.319,96.88 259.62,96.7 C 259.921,96.52 260.265,96.396 260.652,96.3267 C 261.039,96.2573 261.433,96.2187 261.833,96.208 L 263.512,96.1813 L 263.512,95.7733 C 263.512,95.464 263.48,95.2013 263.416,94.9853 C 263.351,94.768 263.252,94.592 263.119,94.46 C 262.985,94.3253 262.817,94.2267 262.617,94.164 C 262.417,94.1027 262.181,94.072 261.911,94.072 C 261.671,94.072 261.453,94.0893 261.26,94.124 C 261.068,94.1573 260.899,94.22 260.756,94.3107 C 260.613,94.4 260.497,94.5227 260.411,94.6773 C 260.324,94.832 260.265,95.0267 260.239,95.2627 L 258.94,95.144 C 258.985,94.8493 259.075,94.58 259.203,94.3333 C 259.331,94.0867 259.515,93.8747 259.752,93.6947 C 259.989,93.5147 260.285,93.376 260.643,93.2773 C 260.999,93.1787 261.431,93.128 261.937,93.128 C 262.877,93.128 263.584,93.344 264.057,93.7747 C 264.532,94.2053 264.769,94.828 264.769,95.644 L 264.769,98.864 C 264.769,99.2333 264.819,99.5107 264.915,99.6973 C 265.012,99.884 265.196,99.9773 265.467,99.9773 C 265.536,99.9773 265.604,99.972 265.675,99.9627 C 265.744,99.9533 265.809,99.9427 265.875,99.9293 L 265.875,100.703 C 265.717,100.74 265.563,100.768 265.408,100.787 C 265.255,100.805 265.089,100.815 264.915,100.815 C 264.679,100.815 264.477,100.784 264.311,100.721 C 264.141,100.659 264.005,100.564 263.899,100.439 C 263.793,100.312 263.712,100.155 263.657,99.9693 C 263.601,99.784 263.568,99.5653 263.553,99.3187 L 263.512,99.3187 C 263.379,99.5573 263.233,99.7733 263.073,99.9667 C 262.915,100.16 262.729,100.325 262.517,100.46 C 262.307,100.596 262.065,100.701 261.796,100.775 C 261.527,100.848 261.217,100.885 260.867,100.885 Z M 261.149,99.9533 C 261.545,99.9533 261.892,99.88 262.189,99.736 C 262.487,99.5907 262.733,99.404 262.928,99.1773 C 263.124,98.9533 263.271,98.7053 263.367,98.4373 C 263.464,98.1707 263.512,97.9147 263.512,97.6693 L 263.512,97.0533 L 262.152,97.0813 C 261.848,97.0853 261.559,97.108 261.284,97.1467 C 261.011,97.1867 260.771,97.264 260.563,97.3787 C 260.356,97.4947 260.192,97.656 260.069,97.864 C 259.948,98.0707 259.887,98.344 259.887,98.68 C 259.887,99.0867 259.996,99.4 260.213,99.6213 C 260.433,99.8427 260.744,99.9533 261.149,99.9533 Z "/>
		<path id="dp_path018" fill="white" fill-rule="evenodd" d="M 266.844,100.744 L 266.844,90.488 L 268.085,90.488 L 268.085,100.744 Z "/>
		<path id="dp_path019" fill="white" fill-rule="evenodd" d="M 274.656,100.744 L 272.129,97.3307 L 271.216,98.084 L 271.216,100.744 L 269.975,100.744 L 269.975,90.488 L 271.216,90.488 L 271.216,96.896 L 274.499,93.2693 L 275.955,93.2693 L 272.924,96.4827 L 276.115,100.744 Z "/>
		<path id="dp_path020" fill="white" fill-rule="evenodd" d="M 278.019,97.2667 C 278.019,97.6587 278.059,98.02 278.14,98.3507 C 278.22,98.68 278.345,98.964 278.512,99.2013 C 278.681,99.44 278.896,99.6253 279.159,99.756 C 279.421,99.888 279.736,99.9533 280.105,99.9533 C 280.644,99.9533 281.075,99.844 281.4,99.6253 C 281.725,99.408 281.944,99.132 282.06,98.7987 L 283.151,99.1107 C 283.072,99.3187 282.964,99.5267 282.824,99.7373 C 282.681,99.948 282.495,100.137 282.26,100.307 C 282.025,100.475 281.732,100.613 281.38,100.723 C 281.027,100.831 280.603,100.885 280.105,100.885 C 279,100.885 278.159,100.555 277.58,99.896 C 277.003,99.2373 276.713,98.2573 276.713,96.9587 C 276.713,96.2587 276.801,95.664 276.976,95.1787 C 277.151,94.692 277.391,94.2973 277.695,93.992 C 277.999,93.688 278.353,93.468 278.757,93.332 C 279.163,93.1973 279.596,93.128 280.057,93.128 C 280.683,93.128 281.207,93.2293 281.628,93.432 C 282.049,93.636 282.387,93.9147 282.643,94.272 C 282.899,94.628 283.08,95.0493 283.189,95.532 C 283.297,96.0147 283.352,96.5387 283.352,97.1 L 283.352,97.2667 Z M 282.067,96.3107 C 281.997,95.5253 281.796,94.9507 281.465,94.5907 C 281.135,94.228 280.657,94.048 280.036,94.048 C 279.828,94.048 279.611,94.0813 279.384,94.148 C 279.155,94.2147 278.944,94.3333 278.751,94.5027 C 278.557,94.6733 278.395,94.9053 278.26,95.1973 C 278.127,95.488 278.052,95.8613 278.033,96.3107 Z "/>
		<path id="dp_path021" fill="white" fill-rule="evenodd" d="M 284.976,100.744 L 284.976,95.0107 C 284.976,94.8547 284.975,94.6933 284.972,94.5307 C 284.971,94.368 284.967,94.2093 284.961,94.0573 C 284.959,93.9053 284.953,93.7627 284.949,93.6293 C 284.944,93.4947 284.94,93.376 284.935,93.2693 L 286.109,93.2693 C 286.113,93.376 286.12,93.496 286.127,93.632 C 286.133,93.768 286.14,93.9067 286.147,94.0493 C 286.153,94.1907 286.159,94.3267 286.16,94.4587 C 286.163,94.5907 286.164,94.7013 286.164,94.7933 L 286.191,94.7933 C 286.28,94.508 286.373,94.26 286.472,94.0507 C 286.571,93.84 286.687,93.668 286.821,93.5333 C 286.953,93.396 287.113,93.296 287.297,93.2293 C 287.481,93.1613 287.705,93.128 287.967,93.128 C 288.068,93.128 288.164,93.1373 288.256,93.152 C 288.348,93.168 288.42,93.184 288.471,93.1987 L 288.471,94.3413 C 288.388,94.3173 288.292,94.3 288.181,94.2893 C 288.071,94.2773 287.947,94.272 287.808,94.272 C 287.523,94.272 287.279,94.3373 287.079,94.4653 C 286.879,94.5933 286.716,94.7733 286.588,95 C 286.463,95.228 286.369,95.5 286.309,95.8147 C 286.249,96.1307 286.22,96.4747 286.22,96.848 L 286.22,100.744 Z "/>
		<g id="dp_group022">
			<path id="dp_path023" fill="white" fill-rule="evenodd" d="M 160.519,62.8493 C 159.568,61.2427 158.733,59.6027 158.011,57.884 L 158.512,65.3573 L 159.125,70.0267 C 159.507,71.128 158.853,71.8147 157.995,72.576 C 157.147,73.3253 155.9,74.3787 155.225,74.916 C 155,75.392 154.499,75.8933 153.997,75.8933 C 152.993,76.8973 152.993,76.8973 149.983,76.3947 C 148.924,76.0893 148.227,76.3173 147.423,76.9493 C 146.432,77.772 145.373,78.496 144.464,79.4053 C 141.583,82.2867 138.624,84.8947 135.435,87.432 L 132.808,88.764 L 131.109,89.4587 C 129.368,90.0213 129.304,90 129.604,88.964 C 129.857,88.0853 130.436,87.492 130.752,86.6347 C 131.773,85.612 135.168,79.672 136.437,78.4027 C 136.812,77.6133 137.228,76.884 137.692,76.144 C 138.105,75.484 138.563,74.6107 138.707,74.2067 C 139.259,72.6627 137.073,73.4827 136.557,73.9227 C 135.545,74.7867 134.488,75.592 133.427,76.3947 C 129.773,79.3187 126.168,82.3053 122.641,85.38 L 124.021,85.8827 C 125.369,86.372 125.4,86.4733 125.4,90.42 C 125.4,91.4467 125.611,93.5627 125.611,94.5667 L 125.901,98.972 C 125.901,102.412 125.875,102.484 124.609,102.484 C 123.597,102.484 123.383,102.675 123.62,103.36 C 123.837,103.989 124.557,104.273 126.167,104.364 C 126.905,104.491 127.908,104.491 128.411,104.491 C 128.411,104.491 128.411,104.491 128.661,104.24 C 128.799,104.101 129.117,103.579 129.368,103.076 C 129.791,102.231 130.104,101.371 130.417,100.477 C 130.417,97.6853 130.368,97.5733 131.361,94.9627 C 131.956,93.3973 132.129,91.7453 134.229,91.52 L 142.96,88.9373 L 147.475,87.9347 C 148.805,87.5413 149.128,87.836 149.533,88.9893 C 150.335,89.792 151.136,90.5933 151.937,91.3947 L 152.215,91.9213 C 153.139,93.6827 154.399,95.3107 155.501,96.9653 C 155.961,98.0373 156.341,98.6147 157.235,99.4053 C 158.448,100.479 158.717,101.516 156.949,102.057 L 155.555,102.484 L 155.052,102.985 C 154.196,103.843 156.687,103.989 157.116,103.989 C 157.74,103.989 158.201,103.941 158.789,103.739 C 159.013,103.487 159.516,103.487 159.516,103.487 C 159.516,103.487 160.017,102.985 160.095,102.888 C 160.588,102.379 160.735,102.047 160.905,101.355 C 161.057,100.733 161.959,99.7973 160.452,98.2333 L 159.304,96.2827 C 159.927,96.2827 162.261,98.344 163.837,99.7827 L 164.697,101.733 C 162.749,102.607 162.156,103.381 161.944,104.144 C 164.783,104.579 165.153,104.431 165.981,104.017 C 166.597,103.709 167.303,102.992 167.551,102.423 C 167.905,101.605 166.953,99.256 162.979,91.1507 C 160.453,86.0013 157.217,80.5307 157.18,80.512 C 156.587,80.208 157.369,79.208 157.812,78.7253 C 159.789,76.5707 160.889,75.1267 162.805,72.9173 C 164.405,71.9627 164.333,70.3933 163.027,68.368 C 161.523,65.86 161.523,65.86 160.519,62.8493 Z "/>
			<path id="dp_path024" fill="white" fill-rule="evenodd" d="M 123.393,76.3947 C 124.409,75.3787 125.64,74.328 126.905,73.636 C 127.211,73.4693 128,72.9053 128.661,72.3813 C 129.323,71.8587 130.011,71.352 130.192,71.256 C 130.372,71.1613 130.372,70.6853 130.192,70.2013 C 129.937,69.516 129.644,69.0493 128.885,68.1173 C 128.125,67.1813 127.847,66.7373 127.632,66.1107 C 127.416,65.484 127.139,65.04 126.377,64.104 C 125.617,63.168 125.339,62.724 125.123,62.0973 C 124.907,61.4707 124.629,61.0253 123.869,60.0893 C 123.113,59.16 122.835,58.7187 122.641,58.136 C 122.231,56.9027 121.888,58.8747 121.888,59.4213 C 121.888,59.3373 121.888,59.8387 121.888,59.8387 C 121.888,60.3413 121.888,60.8427 122.139,61.3187 C 122.361,62.632 122.389,63.8813 122.389,65.2173 C 122.389,67.228 122.22,67.6773 121.387,67.8667 L 117.823,69.372 L 116.3,70.1453 C 115.14,70.736 114.848,71.16 115.072,71.928 C 115.433,73.1667 116.193,74.2573 116.871,75.34 L 117.735,77.1213 C 118.209,78.1013 118.887,78.904 119.24,78.904 C 119.38,78.904 119.881,78.904 119.881,78.904 C 121.387,77.3987 121.387,77.3987 123.393,76.3947 Z "/>
		</g>
	</g>
</svg>