<?xml version="1.0" encoding="UTF-8" standalone="no"?>
<!-- Created with Serif DrawPlus 11, 0, 3, 23 (Feb 25, 14:12:55) (http://www.serif.com) -->
<svg version="1.1" xmlns="http://www.w3.org/2000/svg" xmlns:xlink="http://www.w3.org/1999/xlink" width="115.131" height="159.084">
	<g id="selection" transform="matrix(1,0,0,1,-1124.83,-495.845)">
		<g id="dp_group001">
			<path id="dp_path002" fill="white" fill-rule="evenodd" d="M 1239.96,533.803 L 1220.64,644.153 C 1219.56,650.273 1214.27,654.928 1207.89,654.928 L 1156.89,654.928 C 1150.52,654.928 1145.23,650.273 1144.14,644.153 L 1124.83,533.803 Z M 1140.06,546.552 L 1156.89,642.177 L 1207.89,642.177 L 1224.72,546.552 Z M 1163.27,629.428 L 1163.27,603.928 L 1188.77,603.928 L 1188.77,629.428 Z M 1188.77,598.7 L 1168.49,578.428 L 1188.77,558.155 L 1209.04,578.428 Z "/>
		</g>
		<path id="dp_path003" fill="white" fill-rule="evenodd" d="M 1201.92,495.845 L 1214.84,499.669 L 1174.31,636.683 L 1161.39,632.859 Z "/>
	</g>
</svg>