<?xml version="1.0" encoding="UTF-8" standalone="no"?>
<!-- Created with Serif DrawPlus 11, 0, 3, 23 (Feb 25, 14:12:55) (http://www.serif.com) -->
<svg version="1.1" xmlns="http://www.w3.org/2000/svg" xmlns:xlink="http://www.w3.org/1999/xlink" width="118.025" height="148.288">
	<g id="dp_group001" transform="matrix(1,0,0,1,-779.175,-500.557)">
		<g id="dp_group002">
			<path id="dp_path003" fill="white" fill-rule="evenodd" d="M 843.515,648.844 L 792.664,648.844 C 785.245,648.844 779.175,642.845 779.175,635.364 L 779.175,514.037 C 779.175,506.556 785.177,500.557 792.664,500.557 L 860.105,500.557 C 867.524,500.557 873.595,506.556 873.595,514.037 L 873.595,581.441 C 868.873,581.441 864.355,582.317 860.105,583.8 L 860.105,527.519 L 792.664,527.519 L 792.664,621.883 L 833.129,621.883 C 833.129,632.263 837.04,641.7 843.515,648.844M 865.164,643.183 L 846.617,622.961 L 854.44,615.143 L 865.164,625.86 L 889.376,601.661 L 897.199,611.165 L 865.164,643.183"/>
		</g>
		<g id="dp_group004">
			<path id="dp_path005" fill="white" fill-rule="evenodd" d="M 836.16,603.235 C 842.892,603.235 848.788,599.153 850.113,592.768 L 844.009,589.699 C 843.136,593.501 840.8,596.257 836.16,596.257 L 819.068,596.257 C 821.963,592.768 824.3,588.093 824.3,582.303 C 824.3,581.081 824.196,579.895 823.952,578.813 L 836.16,578.813 L 836.16,571.836 L 821.58,571.836 C 818.719,566.324 815.231,563.463 815.231,557.881 C 815.231,551.148 820.708,545.671 827.44,545.671 C 832.672,545.671 837.172,548.984 838.881,553.624 L 845.335,550.903 C 842.544,543.752 835.603,538.693 827.44,538.693 C 816.836,538.693 808.255,547.275 808.255,557.881 C 808.255,564.091 811.011,567.999 813.487,571.836 L 808.255,571.836 L 808.255,578.813 L 816.871,578.813 C 817.149,579.895 817.324,581.047 817.324,582.303 C 817.324,591.721 808.255,596.257 808.255,596.257 L 808.255,603.235 Z "/>
		</g>
	</g>
</svg>