<?xml version="1.0" encoding="UTF-8" standalone="no"?>
<!-- Created with Serif DrawPlus 11, 0, 3, 23 (Feb 25, 14:12:55) (http://www.serif.com) -->
<svg version="1.1" xmlns="http://www.w3.org/2000/svg" xmlns:xlink="http://www.w3.org/1999/xlink" width="142.851" height="143.027">
	<g id="selection" transform="matrix(1,0,0,1,-408.699,-503.188)">
		<g id="dp_group001">
			<path id="dp_path002" fill="white" fill-rule="evenodd" d="M 461.757,503.188 C 490.864,503.188 514.815,527.169 514.815,556.312 C 514.815,569.469 509.999,581.565 502.081,590.883 L 504.285,593.089 L 510.733,593.089 L 551.548,633.953 L 539.303,646.213 L 498.489,605.348 L 498.489,598.892 L 496.285,596.685 C 486.98,604.613 474.899,609.435 461.757,609.435 C 432.649,609.435 408.699,585.455 408.699,556.312 C 408.699,527.169 432.649,503.188 461.757,503.188 Z M 461.757,519.533 C 441.349,519.533 425.024,535.88 425.024,556.312 C 425.024,576.744 441.349,593.089 461.757,593.089 C 482.164,593.089 498.489,576.744 498.489,556.312 C 498.489,535.88 482.164,519.533 461.757,519.533 Z "/>
		</g>
		<g id="dp_group003">
			<path id="dp_path004" fill="white" fill-rule="evenodd" d="M 462.159,507.32 C 435.727,507.32 413.975,529.071 413.975,555.504 C 413.975,581.937 435.727,603.688 462.159,603.688 C 462.159,603.688 462.159,603.688 462.159,603.688 C 488.592,603.688 510.343,581.937 510.343,555.504 C 510.343,555.504 510.343,555.504 510.343,555.504 C 510.343,529.071 488.592,507.32 462.159,507.32 Z M 438.404,585.764 C 440.476,581.427 453.1,577.187 462.159,577.187 C 471.217,577.187 483.841,581.427 485.913,585.764 C 479.36,590.968 471.121,594.051 462.159,594.051 C 453.197,594.051 444.957,590.968 438.404,585.764 Z M 492.804,578.777 C 485.913,570.393 469.193,567.551 462.159,567.551 C 455.124,567.551 438.404,570.393 431.515,578.777 C 426.599,572.368 423.612,564.273 423.612,555.504 C 423.612,534.255 440.909,516.957 462.159,516.957 C 483.408,516.957 500.705,534.255 500.705,555.504 C 500.705,564.273 497.719,572.368 492.804,578.777 Z M 462.159,526.593 C 452.811,526.593 445.295,534.111 445.295,543.459 C 445.295,552.805 452.811,560.323 462.159,560.323 C 471.507,560.323 479.023,552.805 479.023,543.459 C 479.023,534.111 471.507,526.593 462.159,526.593 Z M 462.159,550.685 C 458.193,550.685 454.931,547.423 454.931,543.459 C 454.931,539.493 458.193,536.231 462.159,536.231 C 466.124,536.231 469.387,539.493 469.387,543.459 C 469.387,547.423 466.124,550.685 462.159,550.685 Z "/>
		</g>
	</g>
</svg>